<?xml version="1.0" encoding="UTF-8" standalone="no"?>
<!DOCTYPE svg PUBLIC "-//W3C//DTD SVG 1.1//EN"
 "http://www.w3.org/Graphics/SVG/1.1/DTD/svg11.dtd">
<!-- Generated by graphviz version 2.40.1 (20161225.0304)
 -->
<!-- Title: %3 Pages: 1 -->
<svg width="497pt" height="680pt"
 viewBox="0.00 0.00 496.63 680.00" xmlns="http://www.w3.org/2000/svg" xmlns:xlink="http://www.w3.org/1999/xlink">
<g id="graph0" class="graph" transform="scale(1 1) rotate(0) translate(4 676)">
<title>%3</title>
<polygon fill="#ffffff" stroke="transparent" points="-4,4 -4,-676 492.627,-676 492.627,4 -4,4"/>
<!-- Actor/Linear[fc1]/9 -->
<g id="node1" class="node">
<title>Actor/Linear[fc1]/9</title>
<polygon fill="#d3d3d3" stroke="#000000" points="399.4414,-592 329.1855,-592 329.1855,-548 399.4414,-548 399.4414,-592"/>
<text text-anchor="middle" x="364.3135" y="-578.4" font-family="Times,serif" font-size="12.00" fill="#000000">Actor</text>
<text text-anchor="middle" x="364.3135" y="-566.4" font-family="Times,serif" font-size="12.00" fill="#000000">Linear[fc1]</text>
<text text-anchor="middle" x="364.3135" y="-554.4" font-family="Times,serif" font-size="12.00" fill="#000000">9</text>
</g>
<!-- Actor/10 -->
<g id="node5" class="node">
<title>Actor/10</title>
<polygon fill="#d3d3d3" stroke="#000000" points="391.3135,-506 337.3135,-506 337.3135,-474 391.3135,-474 391.3135,-506"/>
<text text-anchor="middle" x="364.3135" y="-492.4" font-family="Times,serif" font-size="12.00" fill="#000000">Actor</text>
<text text-anchor="middle" x="364.3135" y="-480.4" font-family="Times,serif" font-size="12.00" fill="#000000">10</text>
</g>
<!-- Actor/Linear[fc1]/9&#45;&gt;Actor/10 -->
<g id="edge4" class="edge">
<title>Actor/Linear[fc1]/9&#45;&gt;Actor/10</title>
<path fill="none" stroke="#000000" d="M364.3135,-547.7155C364.3135,-537.9018 364.3135,-526.3053 364.3135,-516.0909"/>
<polygon fill="#000000" stroke="#000000" points="367.8136,-516.0794 364.3135,-506.0794 360.8136,-516.0795 367.8136,-516.0794"/>
</g>
<!-- input/0 -->
<g id="node2" class="node">
<title>input/0</title>
<polygon fill="#d3d3d3" stroke="#000000" points="311.3135,-666 257.3135,-666 257.3135,-634 311.3135,-634 311.3135,-666"/>
<text text-anchor="middle" x="284.3135" y="-652.4" font-family="Times,serif" font-size="12.00" fill="#000000">input</text>
<text text-anchor="middle" x="284.3135" y="-640.4" font-family="Times,serif" font-size="12.00" fill="#000000">0</text>
</g>
<!-- input/0&#45;&gt;Actor/Linear[fc1]/9 -->
<g id="edge1" class="edge">
<title>input/0&#45;&gt;Actor/Linear[fc1]/9</title>
<path fill="none" stroke="#000000" d="M300.5027,-633.8108C310.3153,-623.9982 323.1337,-611.1798 334.7054,-599.6081"/>
<polygon fill="#000000" stroke="#000000" points="337.4893,-601.774 342.0855,-592.228 332.5395,-596.8242 337.4893,-601.774"/>
</g>
<!-- Actor/Linear[fc1]/1 -->
<g id="node3" class="node">
<title>Actor/Linear[fc1]/1</title>
<polygon fill="#d3d3d3" stroke="#000000" points="399.4414,-672 329.1855,-672 329.1855,-628 399.4414,-628 399.4414,-672"/>
<text text-anchor="middle" x="364.3135" y="-658.4" font-family="Times,serif" font-size="12.00" fill="#000000">Actor</text>
<text text-anchor="middle" x="364.3135" y="-646.4" font-family="Times,serif" font-size="12.00" fill="#000000">Linear[fc1]</text>
<text text-anchor="middle" x="364.3135" y="-634.4" font-family="Times,serif" font-size="12.00" fill="#000000">1</text>
</g>
<!-- Actor/Linear[fc1]/1&#45;&gt;Actor/Linear[fc1]/9 -->
<g id="edge2" class="edge">
<title>Actor/Linear[fc1]/1&#45;&gt;Actor/Linear[fc1]/9</title>
<path fill="none" stroke="#000000" d="M364.3135,-627.7155C364.3135,-619.827 364.3135,-610.7865 364.3135,-602.2379"/>
<polygon fill="#000000" stroke="#000000" points="367.8136,-602.1649 364.3135,-592.165 360.8136,-602.165 367.8136,-602.1649"/>
</g>
<!-- Actor/Linear[fc1]/2 -->
<g id="node4" class="node">
<title>Actor/Linear[fc1]/2</title>
<polygon fill="#d3d3d3" stroke="#000000" points="488.4414,-672 418.1855,-672 418.1855,-628 488.4414,-628 488.4414,-672"/>
<text text-anchor="middle" x="453.3135" y="-658.4" font-family="Times,serif" font-size="12.00" fill="#000000">Actor</text>
<text text-anchor="middle" x="453.3135" y="-646.4" font-family="Times,serif" font-size="12.00" fill="#000000">Linear[fc1]</text>
<text text-anchor="middle" x="453.3135" y="-634.4" font-family="Times,serif" font-size="12.00" fill="#000000">2</text>
</g>
<!-- Actor/Linear[fc1]/2&#45;&gt;Actor/Linear[fc1]/9 -->
<g id="edge3" class="edge">
<title>Actor/Linear[fc1]/2&#45;&gt;Actor/Linear[fc1]/9</title>
<path fill="none" stroke="#000000" d="M428.522,-627.7155C418.5888,-618.7868 407.0136,-608.3822 396.4486,-598.8855"/>
<polygon fill="#000000" stroke="#000000" points="398.7489,-596.247 388.972,-592.165 394.0693,-601.453 398.7489,-596.247"/>
</g>
<!-- Actor/Linear[fc2]/11 -->
<g id="node6" class="node">
<title>Actor/Linear[fc2]/11</title>
<polygon fill="#d3d3d3" stroke="#000000" points="319.4414,-432 249.1855,-432 249.1855,-388 319.4414,-388 319.4414,-432"/>
<text text-anchor="middle" x="284.3135" y="-418.4" font-family="Times,serif" font-size="12.00" fill="#000000">Actor</text>
<text text-anchor="middle" x="284.3135" y="-406.4" font-family="Times,serif" font-size="12.00" fill="#000000">Linear[fc2]</text>
<text text-anchor="middle" x="284.3135" y="-394.4" font-family="Times,serif" font-size="12.00" fill="#000000">11</text>
</g>
<!-- Actor/10&#45;&gt;Actor/Linear[fc2]/11 -->
<g id="edge5" class="edge">
<title>Actor/10&#45;&gt;Actor/Linear[fc2]/11</title>
<path fill="none" stroke="#000000" d="M348.1243,-473.8108C338.3117,-463.9982 325.4932,-451.1798 313.9216,-439.6081"/>
<polygon fill="#000000" stroke="#000000" points="316.0875,-436.8242 306.5415,-432.228 311.1377,-441.774 316.0875,-436.8242"/>
</g>
<!-- Actor/12 -->
<g id="node9" class="node">
<title>Actor/12</title>
<polygon fill="#d3d3d3" stroke="#000000" points="311.3135,-346 257.3135,-346 257.3135,-314 311.3135,-314 311.3135,-346"/>
<text text-anchor="middle" x="284.3135" y="-332.4" font-family="Times,serif" font-size="12.00" fill="#000000">Actor</text>
<text text-anchor="middle" x="284.3135" y="-320.4" font-family="Times,serif" font-size="12.00" fill="#000000">12</text>
</g>
<!-- Actor/Linear[fc2]/11&#45;&gt;Actor/12 -->
<g id="edge8" class="edge">
<title>Actor/Linear[fc2]/11&#45;&gt;Actor/12</title>
<path fill="none" stroke="#000000" d="M284.3135,-387.7155C284.3135,-377.9018 284.3135,-366.3053 284.3135,-356.0909"/>
<polygon fill="#000000" stroke="#000000" points="287.8136,-356.0794 284.3135,-346.0794 280.8136,-356.0795 287.8136,-356.0794"/>
</g>
<!-- Actor/Linear[fc2]/3 -->
<g id="node7" class="node">
<title>Actor/Linear[fc2]/3</title>
<polygon fill="#d3d3d3" stroke="#000000" points="230.4414,-512 160.1855,-512 160.1855,-468 230.4414,-468 230.4414,-512"/>
<text text-anchor="middle" x="195.3135" y="-498.4" font-family="Times,serif" font-size="12.00" fill="#000000">Actor</text>
<text text-anchor="middle" x="195.3135" y="-486.4" font-family="Times,serif" font-size="12.00" fill="#000000">Linear[fc2]</text>
<text text-anchor="middle" x="195.3135" y="-474.4" font-family="Times,serif" font-size="12.00" fill="#000000">3</text>
</g>
<!-- Actor/Linear[fc2]/3&#45;&gt;Actor/Linear[fc2]/11 -->
<g id="edge6" class="edge">
<title>Actor/Linear[fc2]/3&#45;&gt;Actor/Linear[fc2]/11</title>
<path fill="none" stroke="#000000" d="M220.1049,-467.7155C230.0382,-458.7868 241.6133,-448.3822 252.1784,-438.8855"/>
<polygon fill="#000000" stroke="#000000" points="254.5576,-441.453 259.655,-432.165 249.8781,-436.247 254.5576,-441.453"/>
</g>
<!-- Actor/Linear[fc2]/4 -->
<g id="node8" class="node">
<title>Actor/Linear[fc2]/4</title>
<polygon fill="#d3d3d3" stroke="#000000" points="319.4414,-512 249.1855,-512 249.1855,-468 319.4414,-468 319.4414,-512"/>
<text text-anchor="middle" x="284.3135" y="-498.4" font-family="Times,serif" font-size="12.00" fill="#000000">Actor</text>
<text text-anchor="middle" x="284.3135" y="-486.4" font-family="Times,serif" font-size="12.00" fill="#000000">Linear[fc2]</text>
<text text-anchor="middle" x="284.3135" y="-474.4" font-family="Times,serif" font-size="12.00" fill="#000000">4</text>
</g>
<!-- Actor/Linear[fc2]/4&#45;&gt;Actor/Linear[fc2]/11 -->
<g id="edge7" class="edge">
<title>Actor/Linear[fc2]/4&#45;&gt;Actor/Linear[fc2]/11</title>
<path fill="none" stroke="#000000" d="M284.3135,-467.7155C284.3135,-459.827 284.3135,-450.7865 284.3135,-442.2379"/>
<polygon fill="#000000" stroke="#000000" points="287.8136,-442.1649 284.3135,-432.165 280.8136,-442.165 287.8136,-442.1649"/>
</g>
<!-- Actor/Linear[fc3]/13 -->
<g id="node10" class="node">
<title>Actor/Linear[fc3]/13</title>
<polygon fill="#d3d3d3" stroke="#000000" points="239.4414,-272 169.1855,-272 169.1855,-228 239.4414,-228 239.4414,-272"/>
<text text-anchor="middle" x="204.3135" y="-258.4" font-family="Times,serif" font-size="12.00" fill="#000000">Actor</text>
<text text-anchor="middle" x="204.3135" y="-246.4" font-family="Times,serif" font-size="12.00" fill="#000000">Linear[fc3]</text>
<text text-anchor="middle" x="204.3135" y="-234.4" font-family="Times,serif" font-size="12.00" fill="#000000">13</text>
</g>
<!-- Actor/12&#45;&gt;Actor/Linear[fc3]/13 -->
<g id="edge9" class="edge">
<title>Actor/12&#45;&gt;Actor/Linear[fc3]/13</title>
<path fill="none" stroke="#000000" d="M268.1243,-313.8108C258.3117,-303.9982 245.4932,-291.1798 233.9216,-279.6081"/>
<polygon fill="#000000" stroke="#000000" points="236.0875,-276.8242 226.5415,-272.228 231.1377,-281.774 236.0875,-276.8242"/>
</g>
<!-- Actor/14 -->
<g id="node13" class="node">
<title>Actor/14</title>
<polygon fill="#d3d3d3" stroke="#000000" points="231.3135,-186 177.3135,-186 177.3135,-154 231.3135,-154 231.3135,-186"/>
<text text-anchor="middle" x="204.3135" y="-172.4" font-family="Times,serif" font-size="12.00" fill="#000000">Actor</text>
<text text-anchor="middle" x="204.3135" y="-160.4" font-family="Times,serif" font-size="12.00" fill="#000000">14</text>
</g>
<!-- Actor/Linear[fc3]/13&#45;&gt;Actor/14 -->
<g id="edge12" class="edge">
<title>Actor/Linear[fc3]/13&#45;&gt;Actor/14</title>
<path fill="none" stroke="#000000" d="M204.3135,-227.7155C204.3135,-217.9018 204.3135,-206.3053 204.3135,-196.0909"/>
<polygon fill="#000000" stroke="#000000" points="207.8136,-196.0794 204.3135,-186.0794 200.8136,-196.0795 207.8136,-196.0794"/>
</g>
<!-- Actor/Linear[fc3]/5 -->
<g id="node11" class="node">
<title>Actor/Linear[fc3]/5</title>
<polygon fill="#d3d3d3" stroke="#000000" points="150.4414,-352 80.1855,-352 80.1855,-308 150.4414,-308 150.4414,-352"/>
<text text-anchor="middle" x="115.3135" y="-338.4" font-family="Times,serif" font-size="12.00" fill="#000000">Actor</text>
<text text-anchor="middle" x="115.3135" y="-326.4" font-family="Times,serif" font-size="12.00" fill="#000000">Linear[fc3]</text>
<text text-anchor="middle" x="115.3135" y="-314.4" font-family="Times,serif" font-size="12.00" fill="#000000">5</text>
</g>
<!-- Actor/Linear[fc3]/5&#45;&gt;Actor/Linear[fc3]/13 -->
<g id="edge10" class="edge">
<title>Actor/Linear[fc3]/5&#45;&gt;Actor/Linear[fc3]/13</title>
<path fill="none" stroke="#000000" d="M140.1049,-307.7155C150.0382,-298.7868 161.6133,-288.3822 172.1784,-278.8855"/>
<polygon fill="#000000" stroke="#000000" points="174.5576,-281.453 179.655,-272.165 169.8781,-276.247 174.5576,-281.453"/>
</g>
<!-- Actor/Linear[fc3]/6 -->
<g id="node12" class="node">
<title>Actor/Linear[fc3]/6</title>
<polygon fill="#d3d3d3" stroke="#000000" points="239.4414,-352 169.1855,-352 169.1855,-308 239.4414,-308 239.4414,-352"/>
<text text-anchor="middle" x="204.3135" y="-338.4" font-family="Times,serif" font-size="12.00" fill="#000000">Actor</text>
<text text-anchor="middle" x="204.3135" y="-326.4" font-family="Times,serif" font-size="12.00" fill="#000000">Linear[fc3]</text>
<text text-anchor="middle" x="204.3135" y="-314.4" font-family="Times,serif" font-size="12.00" fill="#000000">6</text>
</g>
<!-- Actor/Linear[fc3]/6&#45;&gt;Actor/Linear[fc3]/13 -->
<g id="edge11" class="edge">
<title>Actor/Linear[fc3]/6&#45;&gt;Actor/Linear[fc3]/13</title>
<path fill="none" stroke="#000000" d="M204.3135,-307.7155C204.3135,-299.827 204.3135,-290.7865 204.3135,-282.2379"/>
<polygon fill="#000000" stroke="#000000" points="207.8136,-282.1649 204.3135,-272.165 200.8136,-282.165 207.8136,-282.1649"/>
</g>
<!-- Actor/Linear[fc4]/15 -->
<g id="node14" class="node">
<title>Actor/Linear[fc4]/15</title>
<polygon fill="#d3d3d3" stroke="#000000" points="159.4414,-112 89.1855,-112 89.1855,-68 159.4414,-68 159.4414,-112"/>
<text text-anchor="middle" x="124.3135" y="-98.4" font-family="Times,serif" font-size="12.00" fill="#000000">Actor</text>
<text text-anchor="middle" x="124.3135" y="-86.4" font-family="Times,serif" font-size="12.00" fill="#000000">Linear[fc4]</text>
<text text-anchor="middle" x="124.3135" y="-74.4" font-family="Times,serif" font-size="12.00" fill="#000000">15</text>
</g>
<!-- Actor/14&#45;&gt;Actor/Linear[fc4]/15 -->
<g id="edge13" class="edge">
<title>Actor/14&#45;&gt;Actor/Linear[fc4]/15</title>
<path fill="none" stroke="#000000" d="M188.1243,-153.8108C178.3117,-143.9982 165.4932,-131.1798 153.9216,-119.6081"/>
<polygon fill="#000000" stroke="#000000" points="156.0875,-116.8242 146.5415,-112.228 151.1377,-121.774 156.0875,-116.8242"/>
</g>
<!-- Actor/16 -->
<g id="node17" class="node">
<title>Actor/16</title>
<polygon fill="#d3d3d3" stroke="#000000" points="151.3135,-32 97.3135,-32 97.3135,0 151.3135,0 151.3135,-32"/>
<text text-anchor="middle" x="124.3135" y="-18.4" font-family="Times,serif" font-size="12.00" fill="#000000">Actor</text>
<text text-anchor="middle" x="124.3135" y="-6.4" font-family="Times,serif" font-size="12.00" fill="#000000">16</text>
</g>
<!-- Actor/Linear[fc4]/15&#45;&gt;Actor/16 -->
<g id="edge16" class="edge">
<title>Actor/Linear[fc4]/15&#45;&gt;Actor/16</title>
<path fill="none" stroke="#000000" d="M124.3135,-67.7976C124.3135,-59.8644 124.3135,-50.8447 124.3135,-42.5801"/>
<polygon fill="#000000" stroke="#000000" points="127.8136,-42.3054 124.3135,-32.3054 120.8136,-42.3055 127.8136,-42.3054"/>
</g>
<!-- Actor/Linear[fc4]/7 -->
<g id="node15" class="node">
<title>Actor/Linear[fc4]/7</title>
<polygon fill="#d3d3d3" stroke="#000000" points="70.4414,-192 .1855,-192 .1855,-148 70.4414,-148 70.4414,-192"/>
<text text-anchor="middle" x="35.3135" y="-178.4" font-family="Times,serif" font-size="12.00" fill="#000000">Actor</text>
<text text-anchor="middle" x="35.3135" y="-166.4" font-family="Times,serif" font-size="12.00" fill="#000000">Linear[fc4]</text>
<text text-anchor="middle" x="35.3135" y="-154.4" font-family="Times,serif" font-size="12.00" fill="#000000">7</text>
</g>
<!-- Actor/Linear[fc4]/7&#45;&gt;Actor/Linear[fc4]/15 -->
<g id="edge14" class="edge">
<title>Actor/Linear[fc4]/7&#45;&gt;Actor/Linear[fc4]/15</title>
<path fill="none" stroke="#000000" d="M60.1049,-147.7155C70.0382,-138.7868 81.6133,-128.3822 92.1784,-118.8855"/>
<polygon fill="#000000" stroke="#000000" points="94.5576,-121.453 99.655,-112.165 89.8781,-116.247 94.5576,-121.453"/>
</g>
<!-- Actor/Linear[fc4]/8 -->
<g id="node16" class="node">
<title>Actor/Linear[fc4]/8</title>
<polygon fill="#d3d3d3" stroke="#000000" points="159.4414,-192 89.1855,-192 89.1855,-148 159.4414,-148 159.4414,-192"/>
<text text-anchor="middle" x="124.3135" y="-178.4" font-family="Times,serif" font-size="12.00" fill="#000000">Actor</text>
<text text-anchor="middle" x="124.3135" y="-166.4" font-family="Times,serif" font-size="12.00" fill="#000000">Linear[fc4]</text>
<text text-anchor="middle" x="124.3135" y="-154.4" font-family="Times,serif" font-size="12.00" fill="#000000">8</text>
</g>
<!-- Actor/Linear[fc4]/8&#45;&gt;Actor/Linear[fc4]/15 -->
<g id="edge15" class="edge">
<title>Actor/Linear[fc4]/8&#45;&gt;Actor/Linear[fc4]/15</title>
<path fill="none" stroke="#000000" d="M124.3135,-147.7155C124.3135,-139.827 124.3135,-130.7865 124.3135,-122.2379"/>
<polygon fill="#000000" stroke="#000000" points="127.8136,-122.1649 124.3135,-112.165 120.8136,-122.165 127.8136,-122.1649"/>
</g>
</g>
</svg>
