<?xml version="1.0" encoding="UTF-8" standalone="no"?>
<!DOCTYPE svg PUBLIC "-//W3C//DTD SVG 1.1//EN"
 "http://www.w3.org/Graphics/SVG/1.1/DTD/svg11.dtd">
<!-- Generated by graphviz version 2.40.1 (20161225.0304)
 -->
<!-- Title: %3 Pages: 1 -->
<svg width="435pt" height="520pt"
 viewBox="0.00 0.00 435.31 520.00" xmlns="http://www.w3.org/2000/svg" xmlns:xlink="http://www.w3.org/1999/xlink">
<g id="graph0" class="graph" transform="scale(1 1) rotate(0) translate(4 516)">
<title>%3</title>
<polygon fill="#ffffff" stroke="transparent" points="-4,4 -4,-516 431.3135,-516 431.3135,4 -4,4"/>
<!-- Critic/8 -->
<g id="node1" class="node">
<title>Critic/8</title>
<polygon fill="#d3d3d3" stroke="#000000" points="391.3135,-438 337.3135,-438 337.3135,-406 391.3135,-406 391.3135,-438"/>
<text text-anchor="middle" x="364.3135" y="-424.4" font-family="Times,serif" font-size="12.00" fill="#000000">Critic</text>
<text text-anchor="middle" x="364.3135" y="-412.4" font-family="Times,serif" font-size="12.00" fill="#000000">8</text>
</g>
<!-- Critic/Linear[fc1]/9 -->
<g id="node4" class="node">
<title>Critic/Linear[fc1]/9</title>
<polygon fill="#d3d3d3" stroke="#000000" points="319.4414,-364 249.1855,-364 249.1855,-320 319.4414,-320 319.4414,-364"/>
<text text-anchor="middle" x="284.3135" y="-350.4" font-family="Times,serif" font-size="12.00" fill="#000000">Critic</text>
<text text-anchor="middle" x="284.3135" y="-338.4" font-family="Times,serif" font-size="12.00" fill="#000000">Linear[fc1]</text>
<text text-anchor="middle" x="284.3135" y="-326.4" font-family="Times,serif" font-size="12.00" fill="#000000">9</text>
</g>
<!-- Critic/8&#45;&gt;Critic/Linear[fc1]/9 -->
<g id="edge3" class="edge">
<title>Critic/8&#45;&gt;Critic/Linear[fc1]/9</title>
<path fill="none" stroke="#000000" d="M348.1243,-405.8108C338.3117,-395.9982 325.4932,-383.1798 313.9216,-371.6081"/>
<polygon fill="#000000" stroke="#000000" points="316.0875,-368.8242 306.5415,-364.228 311.1377,-373.774 316.0875,-368.8242"/>
</g>
<!-- input/0 -->
<g id="node2" class="node">
<title>input/0</title>
<polygon fill="#d3d3d3" stroke="#000000" points="355.3135,-512 301.3135,-512 301.3135,-480 355.3135,-480 355.3135,-512"/>
<text text-anchor="middle" x="328.3135" y="-498.4" font-family="Times,serif" font-size="12.00" fill="#000000">input</text>
<text text-anchor="middle" x="328.3135" y="-486.4" font-family="Times,serif" font-size="12.00" fill="#000000">0</text>
</g>
<!-- input/0&#45;&gt;Critic/8 -->
<g id="edge1" class="edge">
<title>input/0&#45;&gt;Critic/8</title>
<path fill="none" stroke="#000000" d="M336.1249,-479.9431C340.7953,-470.343 346.8301,-457.9381 352.1169,-447.0707"/>
<polygon fill="#000000" stroke="#000000" points="355.2899,-448.5491 356.5173,-438.0256 348.9952,-445.4868 355.2899,-448.5491"/>
</g>
<!-- Critic/1 -->
<g id="node3" class="node">
<title>Critic/1</title>
<polygon fill="#d3d3d3" stroke="#000000" points="427.3135,-512 373.3135,-512 373.3135,-480 427.3135,-480 427.3135,-512"/>
<text text-anchor="middle" x="400.3135" y="-498.4" font-family="Times,serif" font-size="12.00" fill="#000000">Critic</text>
<text text-anchor="middle" x="400.3135" y="-486.4" font-family="Times,serif" font-size="12.00" fill="#000000">1</text>
</g>
<!-- Critic/1&#45;&gt;Critic/8 -->
<g id="edge2" class="edge">
<title>Critic/1&#45;&gt;Critic/8</title>
<path fill="none" stroke="#000000" d="M392.502,-479.9431C387.8317,-470.343 381.7969,-457.9381 376.5101,-447.0707"/>
<polygon fill="#000000" stroke="#000000" points="379.6317,-445.4868 372.1097,-438.0256 373.3371,-448.5491 379.6317,-445.4868"/>
</g>
<!-- Critic/10 -->
<g id="node7" class="node">
<title>Critic/10</title>
<polygon fill="#d3d3d3" stroke="#000000" points="311.3135,-278 257.3135,-278 257.3135,-246 311.3135,-246 311.3135,-278"/>
<text text-anchor="middle" x="284.3135" y="-264.4" font-family="Times,serif" font-size="12.00" fill="#000000">Critic</text>
<text text-anchor="middle" x="284.3135" y="-252.4" font-family="Times,serif" font-size="12.00" fill="#000000">10</text>
</g>
<!-- Critic/Linear[fc1]/9&#45;&gt;Critic/10 -->
<g id="edge6" class="edge">
<title>Critic/Linear[fc1]/9&#45;&gt;Critic/10</title>
<path fill="none" stroke="#000000" d="M284.3135,-319.7155C284.3135,-309.9018 284.3135,-298.3053 284.3135,-288.0909"/>
<polygon fill="#000000" stroke="#000000" points="287.8136,-288.0794 284.3135,-278.0794 280.8136,-288.0795 287.8136,-288.0794"/>
</g>
<!-- Critic/Linear[fc1]/2 -->
<g id="node5" class="node">
<title>Critic/Linear[fc1]/2</title>
<polygon fill="#d3d3d3" stroke="#000000" points="230.4414,-444 160.1855,-444 160.1855,-400 230.4414,-400 230.4414,-444"/>
<text text-anchor="middle" x="195.3135" y="-430.4" font-family="Times,serif" font-size="12.00" fill="#000000">Critic</text>
<text text-anchor="middle" x="195.3135" y="-418.4" font-family="Times,serif" font-size="12.00" fill="#000000">Linear[fc1]</text>
<text text-anchor="middle" x="195.3135" y="-406.4" font-family="Times,serif" font-size="12.00" fill="#000000">2</text>
</g>
<!-- Critic/Linear[fc1]/2&#45;&gt;Critic/Linear[fc1]/9 -->
<g id="edge4" class="edge">
<title>Critic/Linear[fc1]/2&#45;&gt;Critic/Linear[fc1]/9</title>
<path fill="none" stroke="#000000" d="M220.1049,-399.7155C230.0382,-390.7868 241.6133,-380.3822 252.1784,-370.8855"/>
<polygon fill="#000000" stroke="#000000" points="254.5576,-373.453 259.655,-364.165 249.8781,-368.247 254.5576,-373.453"/>
</g>
<!-- Critic/Linear[fc1]/3 -->
<g id="node6" class="node">
<title>Critic/Linear[fc1]/3</title>
<polygon fill="#d3d3d3" stroke="#000000" points="319.4414,-444 249.1855,-444 249.1855,-400 319.4414,-400 319.4414,-444"/>
<text text-anchor="middle" x="284.3135" y="-430.4" font-family="Times,serif" font-size="12.00" fill="#000000">Critic</text>
<text text-anchor="middle" x="284.3135" y="-418.4" font-family="Times,serif" font-size="12.00" fill="#000000">Linear[fc1]</text>
<text text-anchor="middle" x="284.3135" y="-406.4" font-family="Times,serif" font-size="12.00" fill="#000000">3</text>
</g>
<!-- Critic/Linear[fc1]/3&#45;&gt;Critic/Linear[fc1]/9 -->
<g id="edge5" class="edge">
<title>Critic/Linear[fc1]/3&#45;&gt;Critic/Linear[fc1]/9</title>
<path fill="none" stroke="#000000" d="M284.3135,-399.7155C284.3135,-391.827 284.3135,-382.7865 284.3135,-374.2379"/>
<polygon fill="#000000" stroke="#000000" points="287.8136,-374.1649 284.3135,-364.165 280.8136,-374.165 287.8136,-374.1649"/>
</g>
<!-- Critic/Linear[fc2]/11 -->
<g id="node8" class="node">
<title>Critic/Linear[fc2]/11</title>
<polygon fill="#d3d3d3" stroke="#000000" points="239.4414,-204 169.1855,-204 169.1855,-160 239.4414,-160 239.4414,-204"/>
<text text-anchor="middle" x="204.3135" y="-190.4" font-family="Times,serif" font-size="12.00" fill="#000000">Critic</text>
<text text-anchor="middle" x="204.3135" y="-178.4" font-family="Times,serif" font-size="12.00" fill="#000000">Linear[fc2]</text>
<text text-anchor="middle" x="204.3135" y="-166.4" font-family="Times,serif" font-size="12.00" fill="#000000">11</text>
</g>
<!-- Critic/10&#45;&gt;Critic/Linear[fc2]/11 -->
<g id="edge7" class="edge">
<title>Critic/10&#45;&gt;Critic/Linear[fc2]/11</title>
<path fill="none" stroke="#000000" d="M268.1243,-245.8108C258.3117,-235.9982 245.4932,-223.1798 233.9216,-211.6081"/>
<polygon fill="#000000" stroke="#000000" points="236.0875,-208.8242 226.5415,-204.228 231.1377,-213.774 236.0875,-208.8242"/>
</g>
<!-- Critic/12 -->
<g id="node11" class="node">
<title>Critic/12</title>
<polygon fill="#d3d3d3" stroke="#000000" points="231.3135,-118 177.3135,-118 177.3135,-86 231.3135,-86 231.3135,-118"/>
<text text-anchor="middle" x="204.3135" y="-104.4" font-family="Times,serif" font-size="12.00" fill="#000000">Critic</text>
<text text-anchor="middle" x="204.3135" y="-92.4" font-family="Times,serif" font-size="12.00" fill="#000000">12</text>
</g>
<!-- Critic/Linear[fc2]/11&#45;&gt;Critic/12 -->
<g id="edge10" class="edge">
<title>Critic/Linear[fc2]/11&#45;&gt;Critic/12</title>
<path fill="none" stroke="#000000" d="M204.3135,-159.7155C204.3135,-149.9018 204.3135,-138.3053 204.3135,-128.0909"/>
<polygon fill="#000000" stroke="#000000" points="207.8136,-128.0794 204.3135,-118.0794 200.8136,-128.0795 207.8136,-128.0794"/>
</g>
<!-- Critic/Linear[fc2]/4 -->
<g id="node9" class="node">
<title>Critic/Linear[fc2]/4</title>
<polygon fill="#d3d3d3" stroke="#000000" points="150.4414,-284 80.1855,-284 80.1855,-240 150.4414,-240 150.4414,-284"/>
<text text-anchor="middle" x="115.3135" y="-270.4" font-family="Times,serif" font-size="12.00" fill="#000000">Critic</text>
<text text-anchor="middle" x="115.3135" y="-258.4" font-family="Times,serif" font-size="12.00" fill="#000000">Linear[fc2]</text>
<text text-anchor="middle" x="115.3135" y="-246.4" font-family="Times,serif" font-size="12.00" fill="#000000">4</text>
</g>
<!-- Critic/Linear[fc2]/4&#45;&gt;Critic/Linear[fc2]/11 -->
<g id="edge8" class="edge">
<title>Critic/Linear[fc2]/4&#45;&gt;Critic/Linear[fc2]/11</title>
<path fill="none" stroke="#000000" d="M140.1049,-239.7155C150.0382,-230.7868 161.6133,-220.3822 172.1784,-210.8855"/>
<polygon fill="#000000" stroke="#000000" points="174.5576,-213.453 179.655,-204.165 169.8781,-208.247 174.5576,-213.453"/>
</g>
<!-- Critic/Linear[fc2]/5 -->
<g id="node10" class="node">
<title>Critic/Linear[fc2]/5</title>
<polygon fill="#d3d3d3" stroke="#000000" points="239.4414,-284 169.1855,-284 169.1855,-240 239.4414,-240 239.4414,-284"/>
<text text-anchor="middle" x="204.3135" y="-270.4" font-family="Times,serif" font-size="12.00" fill="#000000">Critic</text>
<text text-anchor="middle" x="204.3135" y="-258.4" font-family="Times,serif" font-size="12.00" fill="#000000">Linear[fc2]</text>
<text text-anchor="middle" x="204.3135" y="-246.4" font-family="Times,serif" font-size="12.00" fill="#000000">5</text>
</g>
<!-- Critic/Linear[fc2]/5&#45;&gt;Critic/Linear[fc2]/11 -->
<g id="edge9" class="edge">
<title>Critic/Linear[fc2]/5&#45;&gt;Critic/Linear[fc2]/11</title>
<path fill="none" stroke="#000000" d="M204.3135,-239.7155C204.3135,-231.827 204.3135,-222.7865 204.3135,-214.2379"/>
<polygon fill="#000000" stroke="#000000" points="207.8136,-214.1649 204.3135,-204.165 200.8136,-214.165 207.8136,-214.1649"/>
</g>
<!-- Critic/Linear[fc3]/13 -->
<g id="node12" class="node">
<title>Critic/Linear[fc3]/13</title>
<polygon fill="#d3d3d3" stroke="#000000" points="159.4414,-44 89.1855,-44 89.1855,0 159.4414,0 159.4414,-44"/>
<text text-anchor="middle" x="124.3135" y="-30.4" font-family="Times,serif" font-size="12.00" fill="#000000">Critic</text>
<text text-anchor="middle" x="124.3135" y="-18.4" font-family="Times,serif" font-size="12.00" fill="#000000">Linear[fc3]</text>
<text text-anchor="middle" x="124.3135" y="-6.4" font-family="Times,serif" font-size="12.00" fill="#000000">13</text>
</g>
<!-- Critic/12&#45;&gt;Critic/Linear[fc3]/13 -->
<g id="edge11" class="edge">
<title>Critic/12&#45;&gt;Critic/Linear[fc3]/13</title>
<path fill="none" stroke="#000000" d="M188.1243,-85.8108C178.3117,-75.9982 165.4932,-63.1798 153.9216,-51.6081"/>
<polygon fill="#000000" stroke="#000000" points="156.0875,-48.8242 146.5415,-44.228 151.1377,-53.774 156.0875,-48.8242"/>
</g>
<!-- Critic/Linear[fc3]/6 -->
<g id="node13" class="node">
<title>Critic/Linear[fc3]/6</title>
<polygon fill="#d3d3d3" stroke="#000000" points="70.4414,-124 .1855,-124 .1855,-80 70.4414,-80 70.4414,-124"/>
<text text-anchor="middle" x="35.3135" y="-110.4" font-family="Times,serif" font-size="12.00" fill="#000000">Critic</text>
<text text-anchor="middle" x="35.3135" y="-98.4" font-family="Times,serif" font-size="12.00" fill="#000000">Linear[fc3]</text>
<text text-anchor="middle" x="35.3135" y="-86.4" font-family="Times,serif" font-size="12.00" fill="#000000">6</text>
</g>
<!-- Critic/Linear[fc3]/6&#45;&gt;Critic/Linear[fc3]/13 -->
<g id="edge12" class="edge">
<title>Critic/Linear[fc3]/6&#45;&gt;Critic/Linear[fc3]/13</title>
<path fill="none" stroke="#000000" d="M60.1049,-79.7155C70.0382,-70.7868 81.6133,-60.3822 92.1784,-50.8855"/>
<polygon fill="#000000" stroke="#000000" points="94.5576,-53.453 99.655,-44.165 89.8781,-48.247 94.5576,-53.453"/>
</g>
<!-- Critic/Linear[fc3]/7 -->
<g id="node14" class="node">
<title>Critic/Linear[fc3]/7</title>
<polygon fill="#d3d3d3" stroke="#000000" points="159.4414,-124 89.1855,-124 89.1855,-80 159.4414,-80 159.4414,-124"/>
<text text-anchor="middle" x="124.3135" y="-110.4" font-family="Times,serif" font-size="12.00" fill="#000000">Critic</text>
<text text-anchor="middle" x="124.3135" y="-98.4" font-family="Times,serif" font-size="12.00" fill="#000000">Linear[fc3]</text>
<text text-anchor="middle" x="124.3135" y="-86.4" font-family="Times,serif" font-size="12.00" fill="#000000">7</text>
</g>
<!-- Critic/Linear[fc3]/7&#45;&gt;Critic/Linear[fc3]/13 -->
<g id="edge13" class="edge">
<title>Critic/Linear[fc3]/7&#45;&gt;Critic/Linear[fc3]/13</title>
<path fill="none" stroke="#000000" d="M124.3135,-79.7155C124.3135,-71.827 124.3135,-62.7865 124.3135,-54.2379"/>
<polygon fill="#000000" stroke="#000000" points="127.8136,-54.1649 124.3135,-44.165 120.8136,-54.165 127.8136,-54.1649"/>
</g>
</g>
</svg>
